<svg xmlns="http://www.w3.org/2000/svg" viewBox="0 0 100 120" width="100" height="120">
  <defs>
    <linearGradient id="shieldGradient" x1="0%" y1="0%" x2="0%" y2="100%">
      <stop offset="0%" style="stop-color:#ffffff;stop-opacity:1" />
      <stop offset="100%" style="stop-color:#f0f0f0;stop-opacity:1" />
    </linearGradient>
  </defs>
  
  <!-- Shield outline -->
  <path d="M10 10 L90 10 L90 75 Q90 85 80 95 L50 110 L20 95 Q10 85 10 75 Z" 
        fill="url(#shieldGradient)" 
        stroke="#2c5aa0" 
        stroke-width="2"/>
  
  <!-- Top section - blue -->
  <path d="M12 12 L88 12 L88 45 L12 45 Z" 
        fill="#2c5aa0"/>
  
  <!-- Castle towers -->
  <rect x="20" y="15" width="12" height="25" fill="#ffffff"/>
  <rect x="34" y="18" width="12" height="22" fill="#ffffff"/>
  <rect x="48" y="15" width="12" height="25" fill="#ffffff"/>
  <rect x="62" y="18" width="12" height="22" fill="#ffffff"/>
  <rect x="76" y="15" width="8" height="25" fill="#ffffff"/>
  
  <!-- Castle crenellations -->
  <rect x="20" y="15" width="2" height="4" fill="#2c5aa0"/>
  <rect x="24" y="15" width="2" height="4" fill="#2c5aa0"/>
  <rect x="28" y="15" width="2" height="4" fill="#2c5aa0"/>
  <rect x="34" y="18" width="2" height="3" fill="#2c5aa0"/>
  <rect x="38" y="18" width="2" height="3" fill="#2c5aa0"/>
  <rect x="42" y="18" width="2" height="3" fill="#2c5aa0"/>
  <rect x="48" y="15" width="2" height="4" fill="#2c5aa0"/>
  <rect x="52" y="15" width="2" height="4" fill="#2c5aa0"/>
  <rect x="56" y="15" width="2" height="4" fill="#2c5aa0"/>
  <rect x="62" y="18" width="2" height="3" fill="#2c5aa0"/>
  <rect x="66" y="18" width="2" height="3" fill="#2c5aa0"/>
  <rect x="70" y="18" width="2" height="3" fill="#2c5aa0"/>
  <rect x="76" y="15" width="2" height="4" fill="#2c5aa0"/>
  <rect x="80" y="15" width="2" height="4" fill="#2c5aa0"/>
  
  <!-- Bottom section - red stripes (Valencia region) -->
  <rect x="12" y="45" width="76" height="6" fill="#c8102e"/>
  <rect x="12" y="57" width="76" height="6" fill="#c8102e"/>
  <rect x="12" y="69" width="76" height="6" fill="#c8102e"/>
  
  <!-- Crown at top -->
  <rect x="40" y="8" width="20" height="4" fill="#ffd700" stroke="#b8860b" stroke-width="0.5"/>
  <circle cx="43" cy="6" r="1.5" fill="#ffd700" stroke="#b8860b" stroke-width="0.3"/>
  <circle cx="50" cy="5" r="2" fill="#ffd700" stroke="#b8860b" stroke-width="0.3"/>
  <circle cx="57" cy="6" r="1.5" fill="#ffd700" stroke="#b8860b" stroke-width="0.3"/>
</svg>