<svg version="1.1" id="Layer_1" xmlns="http://www.w3.org/2000/svg" xmlns:xlink="http://www.w3.org/1999/xlink" x="0px" y="0px"
	 width="100%" viewBox="0 0 225 225" enable-background="new 0 0 225 225" xml:space="preserve">
<path fill="#A81B2E" opacity="1.000000" stroke="none" 
	d="
M97.000000,1.000000 
	C139.957306,1.000000 182.914612,1.000000 225.935959,1.000000 
	C225.935959,75.882790 225.935959,150.765656 225.935959,226.000000 
	C197.313400,226.000000 168.625351,226.000000 139.355087,225.801529 
	C138.591476,225.349716 138.361404,225.153473 137.991302,224.552582 
	C137.968857,206.053894 138.037689,188.016937 138.220642,169.888977 
	C138.525742,169.545029 138.494217,169.295410 138.270630,168.682877 
	C140.689484,160.630798 143.077866,152.944946 145.805771,144.166565 
	C147.393036,146.367401 148.505600,147.692154 149.380905,149.158524 
	C155.764969,159.853485 162.250351,170.492752 168.373154,181.336273 
	C170.559158,185.207733 173.224380,188.120193 177.660599,187.023956 
	C180.982864,186.203003 184.231598,184.204895 186.849854,181.958038 
	C187.621368,181.295959 186.626175,177.711975 185.602737,175.955139 
	C175.486023,158.588928 165.110992,141.372787 155.064499,123.966728 
	C153.943344,122.024292 153.765228,119.027748 154.262344,116.764420 
	C155.388184,111.638588 157.208710,106.665337 158.895218,101.143974 
	C155.920731,99.855064 153.273758,97.852791 150.505127,97.667374 
	C141.908264,97.091644 138.522888,92.543633 138.644470,84.090744 
	C135.283203,83.517250 132.174393,83.263237 128.975327,82.598251 
	C128.919815,80.792198 128.954590,79.397118 129.235779,77.724731 
	C129.250381,75.607460 129.018555,73.767494 128.620422,71.533516 
	C127.797829,53.022881 126.987358,34.909706 126.582260,16.787464 
	C126.465599,11.568667 123.307625,11.265015 119.713326,11.289054 
	C116.084259,11.313326 113.021217,11.751596 113.003784,16.966322 
	C112.961555,29.601851 112.340164,42.235832 111.921791,54.869427 
	C111.824425,57.809517 111.605850,60.745590 111.442429,63.694614 
	C106.973618,64.168282 103.062523,64.582832 98.460693,65.070595 
	C97.968025,43.460629 97.484009,22.230314 97.000000,1.000000 
z"/>
<path fill="#A81B2E" opacity="1.000000" stroke="none" 
	d="
M93.000000,226.000000 
	C62.367237,226.000000 31.734478,226.000000 1.050858,226.000000 
	C1.050858,151.116852 1.050858,76.233665 1.050858,1.000000 
	C27.019846,1.000000 53.041264,1.000000 79.534805,1.466388 
	C80.350914,6.958826 80.694885,11.984877 81.105713,17.423416 
	C81.102341,19.224180 81.032112,20.612457 80.788040,22.168571 
	C80.725235,22.890371 80.836281,23.444332 81.001831,24.462770 
	C80.598907,37.995819 80.141472,51.064392 79.502716,64.217026 
	C79.243080,64.405602 79.078865,64.576416 79.100197,64.604065 
	C79.257446,64.807854 79.451729,64.983063 79.720230,65.586273 
	C79.597580,67.983948 79.389061,69.962601 78.910889,72.214630 
	C78.765228,74.659637 78.889229,76.831268 79.105682,79.413956 
	C79.108269,81.221680 79.018402,82.618347 78.719864,84.214844 
	C78.638260,85.269684 78.765327,86.124687 78.967201,87.431946 
	C79.038521,88.549599 79.030373,89.215012 79.032303,89.880394 
	C79.045090,94.290367 79.822220,99.013771 73.644897,100.405235 
	C73.026863,100.544441 72.381241,102.846848 72.601738,103.979126 
	C73.180305,106.950020 74.230621,109.829056 75.486435,114.075104 
	C64.407417,114.075104 54.271137,114.257248 44.146259,113.996521 
	C39.250515,113.870461 36.892624,116.412277 36.402050,120.575981 
	C36.025826,123.769173 36.501278,127.179100 37.220348,130.351547 
	C37.910900,133.398209 40.119553,134.892914 43.567226,134.601761 
	C48.031673,134.224762 52.531307,134.264404 57.324959,134.347397 
	C60.088116,134.391388 62.542107,134.212631 65.364594,133.941742 
	C66.486992,133.895065 67.240898,133.940552 68.315887,134.244019 
	C73.244209,136.100327 79.017845,132.971375 82.934067,138.345337 
	C85.302582,145.826965 87.917976,152.861343 89.615738,160.110641 
	C91.186363,166.817017 92.433144,173.731628 92.660751,180.593079 
	C93.162407,195.715820 92.931801,210.862869 93.000000,226.000000 
z"/>
<path fill="#FEFDFD" opacity="1.000000" stroke="none" 
	d="
M79.180542,71.941261 
	C79.389061,69.962601 79.597580,67.983948 79.800552,65.330978 
	C79.758018,64.482109 79.721031,64.307533 79.684044,64.132965 
	C80.141472,51.064392 80.598907,37.995819 81.082275,24.133535 
	C81.059425,22.893459 81.010658,22.447096 80.961891,22.000732 
	C81.032112,20.612457 81.102341,19.224180 81.208397,17.029627 
	C81.496147,11.148899 81.748070,6.074450 82.000000,1.000000 
	C86.689255,1.000000 91.378510,1.000000 96.533882,1.000000 
	C97.484009,22.230314 97.968025,43.460629 98.460693,65.070595 
	C103.062523,64.582832 106.973618,64.168282 111.442429,63.694614 
	C111.605850,60.745590 111.824425,57.809517 111.921791,54.869427 
	C112.340164,42.235832 112.961555,29.601851 113.003784,16.966322 
	C113.021217,11.751596 116.084259,11.313326 119.713326,11.289054 
	C123.307625,11.265015 126.465599,11.568667 126.582260,16.787464 
	C126.987358,34.909706 127.797829,53.022881 128.533997,71.962234 
	C128.739044,74.523987 128.864197,76.263016 128.989349,78.002045 
	C128.954590,79.397118 128.919815,80.792198 129.045715,83.036293 
	C132.436584,84.060280 135.666763,84.235252 138.896957,84.410217 
	C138.522888,92.543633 141.908264,97.091644 150.505127,97.667374 
	C153.273758,97.852791 155.920731,99.855064 158.895218,101.143974 
	C157.208710,106.665337 155.388184,111.638588 154.262344,116.764420 
	C153.765228,119.027748 153.943344,122.024292 155.064499,123.966728 
	C165.110992,141.372787 175.486023,158.588928 185.602737,175.955139 
	C186.626175,177.711975 187.621368,181.295959 186.849854,181.958038 
	C184.231598,184.204895 180.982864,186.203003 177.660599,187.023956 
	C173.224380,188.120193 170.559158,185.207733 168.373154,181.336273 
	C162.250351,170.492752 155.764969,159.853485 149.380905,149.158524 
	C148.505600,147.692154 147.393036,146.367401 145.805771,144.166565 
	C143.077866,152.944946 140.689484,160.630798 138.165070,168.905228 
	C138.029037,169.493820 138.106537,169.979996 138.106537,169.979996 
	C138.037689,188.016937 137.968857,206.053894 137.927673,224.795410 
	C137.970215,225.666672 137.985107,225.833328 138.000000,226.000000 
	C123.312439,226.000000 108.624878,226.000000 93.468658,226.000000 
	C92.931801,210.862869 93.162407,195.715820 92.660751,180.593079 
	C92.433144,173.731628 91.186363,166.817017 89.615738,160.110641 
	C87.917976,152.861343 85.302582,145.826965 82.911545,137.968201 
	C82.235825,134.164658 80.732819,132.738968 77.362701,133.293060 
	C74.285286,133.799072 71.120872,133.775940 67.994797,133.986023 
	C67.240898,133.940552 66.486992,133.895065 64.924881,133.876556 
	C61.749710,133.977249 59.382751,134.050964 57.015793,134.124664 
	C52.531307,134.264404 48.031673,134.224762 43.567226,134.601761 
	C40.119553,134.892914 37.910900,133.398209 37.220348,130.351547 
	C36.501278,127.179100 36.025826,123.769173 36.402050,120.575981 
	C36.892624,116.412277 39.250515,113.870461 44.146259,113.996521 
	C54.271137,114.257248 64.407417,114.075104 75.486435,114.075104 
	C74.230621,109.829056 73.180305,106.950020 72.601738,103.979126 
	C72.381241,102.846848 73.026863,100.544441 73.644897,100.405235 
	C79.822220,99.013771 79.045090,94.290367 79.032303,89.880394 
	C79.030373,89.215012 79.038521,88.549599 79.047066,87.066277 
	C79.010925,85.503906 78.969734,84.759468 78.928535,84.015022 
	C79.018402,82.618347 79.108269,81.221680 79.198990,78.980148 
	C79.193405,76.070618 79.186974,74.005943 79.180542,71.941261 
z"/>
<path fill="#AD2136" opacity="1.000000" stroke="none" 
	d="
M81.666664,1.000000 
	C81.748070,6.074450 81.496147,11.148899 81.141541,16.617138 
	C80.694885,11.984877 80.350914,6.958826 80.003464,1.466388 
	C80.444443,1.000000 80.888893,1.000000 81.666664,1.000000 
z"/>
<path fill="#A40019" opacity="1.000000" stroke="none" 
	d="
M138.250000,226.000000 
	C137.985107,225.833328 137.970215,225.666672 138.018967,225.257172 
	C138.361404,225.153473 138.591476,225.349716 138.886429,225.801529 
	C139.000000,226.000000 138.500000,226.000000 138.250000,226.000000 
z"/>
<path fill="#A4031E" opacity="1.000000" stroke="none" 
	d="
M138.644470,84.090736 
	C135.666763,84.235252 132.436584,84.060280 129.135986,83.447273 
	C132.174393,83.263237 135.283203,83.517250 138.644470,84.090736 
z"/>
<path fill="#A4031E" opacity="1.000000" stroke="none" 
	d="
M129.235779,77.724731 
	C128.864197,76.263016 128.739044,74.523987 128.700317,72.356247 
	C129.018555,73.767494 129.250381,75.607460 129.235779,77.724731 
z"/>
<path fill="#A40019" opacity="1.000000" stroke="none" 
	d="
M138.220642,169.888977 
	C138.106537,169.979996 138.029037,169.493820 138.134613,169.271469 
	C138.494217,169.295410 138.525742,169.545029 138.220642,169.888977 
z"/>
<path fill="#A91426" opacity="1.000000" stroke="none" 
	d="
M68.315887,134.244003 
	C71.120872,133.775940 74.285286,133.799072 77.362701,133.293060 
	C80.732819,132.738968 82.235825,134.164658 82.758179,137.614685 
	C79.017845,132.971375 73.244209,136.100327 68.315887,134.244003 
z"/>
<path fill="#A91426" opacity="1.000000" stroke="none" 
	d="
M57.324959,134.347397 
	C59.382751,134.050964 61.749710,133.977249 64.556381,133.968719 
	C62.542107,134.212631 60.088116,134.391388 57.324959,134.347397 
z"/>
<path fill="#A5051E" opacity="1.000000" stroke="none" 
	d="
M78.910889,72.214630 
	C79.186974,74.005943 79.193405,76.070618 79.106537,78.569107 
	C78.889229,76.831268 78.765228,74.659637 78.910889,72.214630 
z"/>
<path fill="#A5051E" opacity="1.000000" stroke="none" 
	d="
M78.719864,84.214844 
	C78.969734,84.759468 79.010925,85.503906 78.972260,86.614029 
	C78.765327,86.124687 78.638260,85.269684 78.719864,84.214844 
z"/>
<path fill="#AD2136" opacity="1.000000" stroke="none" 
	d="
M80.788040,22.168571 
	C81.010658,22.447096 81.059425,22.893459 81.027756,23.669058 
	C80.836281,23.444332 80.725235,22.890371 80.788040,22.168571 
z"/>
<path fill="#A5051E" opacity="1.000000" stroke="none" 
	d="
M79.502716,64.217026 
	C79.721031,64.307533 79.758018,64.482109 79.714684,64.911972 
	C79.451729,64.983063 79.257446,64.807854 79.100197,64.604065 
	C79.078865,64.576416 79.243080,64.405602 79.502716,64.217026 
z"/>
</svg>